<svg xmlns="http://www.w3.org/2000/svg" width="121.327" height="52.996" viewBox="0 0 121.327 52.996">
  <g id="グループ_1975" data-name="グループ 1975" transform="translate(-50 -4923.004)">
    <path id="パス_1" data-name="パス 1" d="M37.139,45.555c-.073-1.067-.113-1.987-.132-3.041,0-1.4-.046-2.584-.053-3.975a8.274,8.274,0,0,0-.285-2.12,3.365,3.365,0,0,0-1.676-2.173,5.3,5.3,0,0,0-1.6-.6,13.289,13.289,0,0,0-5.386-.106,6.267,6.267,0,0,0-1.464.417,3.9,3.9,0,0,0-2.3,2.524,3.021,3.021,0,0,0-.126,1.325.623.623,0,0,0,.073.238l4.346.106a1.948,1.948,0,0,1,.126-.775,1.325,1.325,0,0,1,.821-.821,2.5,2.5,0,0,1,1.729,0,1.159,1.159,0,0,1,.788.795.762.762,0,0,1-.106.662,1.106,1.106,0,0,1-.5.391l-.378.119c-.6.159-1.12.272-1.736.378-.49.079-.9.152-1.391.252a16.487,16.487,0,0,0-1.848.484,3.975,3.975,0,0,0-1.49.874A3.14,3.14,0,0,0,23.526,42.5a3.869,3.869,0,0,0,.06,1.51,3.6,3.6,0,0,0,2.57,2.729,6.3,6.3,0,0,0,4.253-.219,4.067,4.067,0,0,0,1.7-1.239l-.338-2.239a1.881,1.881,0,0,1-.855.735,3.166,3.166,0,0,1-1.067.272,2.292,2.292,0,0,1-.821-.066,1.239,1.239,0,0,1-.609-.371,1.033,1.033,0,0,1-.285-.537.861.861,0,0,1,.325-.881,1.6,1.6,0,0,1,.53-.318c.5-.185.934-.325,1.457-.47a11.261,11.261,0,0,0,1.729-.662,4.578,4.578,0,0,1,0,1.325,2.179,2.179,0,0,1-.338.974l.3,2.226c.1.311.185.576.291.888a1.5,1.5,0,0,0,.258.444h4.789a2.093,2.093,0,0,1-.344-1.047Z" transform="translate(42.074 4911.758)"/>
    <path id="パス_2" data-name="パス 2" d="M80.942,45.555c-.073-1.067-.106-1.987-.132-3.041,0-1.4-.046-2.584-.06-3.975a8.559,8.559,0,0,0-.272-2.12A3.412,3.412,0,0,0,78.8,34.247a5.346,5.346,0,0,0-1.6-.6,13.322,13.322,0,0,0-5.392-.106,6.214,6.214,0,0,0-1.457.417,3.875,3.875,0,0,0-2.305,2.524,3.127,3.127,0,0,0-.126,1.325.762.762,0,0,0,.073.238l4.352.106a1.941,1.941,0,0,1,.119-.775,1.325,1.325,0,0,1,.821-.821,2.5,2.5,0,0,1,1.729,0,1.159,1.159,0,0,1,.788.795.762.762,0,0,1-.106.662,1.073,1.073,0,0,1-.5.391l-.378.119c-.6.159-1.12.272-1.736.378-.49.079-.9.152-1.385.252a16.124,16.124,0,0,0-1.848.484,3.849,3.849,0,0,0-1.5.874A3.12,3.12,0,0,0,67.3,42.5a3.869,3.869,0,0,0,.06,1.51,3.624,3.624,0,0,0,2.57,2.729,6.3,6.3,0,0,0,4.253-.219,4.087,4.087,0,0,0,1.7-1.239l-.311-2.239a1.881,1.881,0,0,1-.855.735,3.312,3.312,0,0,1-1.033.272,2.352,2.352,0,0,1-.888-.073,1.259,1.259,0,0,1-.616-.371,1.08,1.08,0,0,1-.278-.53.868.868,0,0,1,.291-.861,1.736,1.736,0,0,1,.53-.318c.5-.179.941-.325,1.457-.47a11.858,11.858,0,0,0,1.736-.662,5.71,5.71,0,0,1,0,1.325,2.2,2.2,0,0,1-.351.954l.311,2.226c.093.311.179.576.291.888a1.259,1.259,0,0,0,.265.444h4.789a2.113,2.113,0,0,1-.272-1.047Z" transform="translate(27.301 4911.758)"/>
    <path id="パス_3" data-name="パス 3" d="M117.741,33.382a9.393,9.393,0,0,0-2.921,0,6.724,6.724,0,0,0-3.776,1.875,6.108,6.108,0,0,0-1.934,4.034,7.287,7.287,0,0,0,.245,2.782,6.379,6.379,0,0,0,2.372,3.5,6.134,6.134,0,0,0,2.55,1.186,9.506,9.506,0,0,0,3.975,0,6.134,6.134,0,0,0,2.55-1.186l-2.776-3.027a1.948,1.948,0,0,1-2.577.974,1.875,1.875,0,0,1-.98-.974A4.557,4.557,0,0,1,114.1,41.3a7.168,7.168,0,0,1,.06-2.6,3.312,3.312,0,0,1,.5-1.245,1.888,1.888,0,0,1,2.61-.537,1.729,1.729,0,0,1,.537.537,3.16,3.16,0,0,1,.53,1.245,7.287,7.287,0,0,1,.053,2.6,4.478,4.478,0,0,1-.358,1.245l2.776,3.027a6.333,6.333,0,0,0,2.365-3.5,7.181,7.181,0,0,0,.252-2.782,6.108,6.108,0,0,0-1.934-4.034A6.724,6.724,0,0,0,117.741,33.382Z" transform="translate(13.184 4911.773)"/>
    <path id="パス_4" data-name="パス 4" d="M8.811,38.533H5.5v-4.26H7.625c.411,0,.755,0,1.166-.033a1.775,1.775,0,0,0,1.378-.735,1.722,1.722,0,0,0,.325-.788,3.312,3.312,0,0,0,0-.722,1.815,1.815,0,0,0-1.822-1.649H5.478V44.1H0V26H10a6.34,6.34,0,0,1,5.962,6.691c0,.119,0,.238,0,.364a5.856,5.856,0,0,1-4.637,5.18,10.858,10.858,0,0,1-2.511.3Z" transform="translate(50 4914.227)"/>
    <path id="パス_5" data-name="パス 5" d="M95.371,41.815a5.618,5.618,0,0,1,1.033.258.821.821,0,0,1,.57.662.961.961,0,0,1-.258.888,1.537,1.537,0,0,1-.861.437,2.484,2.484,0,0,1-1.325-.126,1.861,1.861,0,0,1-.53-.311,1.325,1.325,0,0,1-.45-.662,2.06,2.06,0,0,1-.1-.7H88.74v.278a3.445,3.445,0,0,0,.225,1.239,3.975,3.975,0,0,0,1.067,1.57,5.008,5.008,0,0,0,2.153,1.212,11.48,11.48,0,0,0,5.127.325,7.042,7.042,0,0,0,2.3-.749,4.729,4.729,0,0,0,.888-.6,3.935,3.935,0,0,0,1.245-4.306,3.2,3.2,0,0,0-.974-1.524,5.445,5.445,0,0,0-2.126-1.166l-.537-.146a23,23,0,0,0-2.928-.623c-.278-.04-.53-.093-.788-.152a1.51,1.51,0,0,1-.344-.119.59.59,0,0,1-.3-.768V36.7a1.119,1.119,0,0,1,.662-.53,2.484,2.484,0,0,1,1.6,0,1.186,1.186,0,0,1,.855,1.232h4.564a4.531,4.531,0,0,0-.278-1.57,2.782,2.782,0,0,0-.934-1.285,4.28,4.28,0,0,0-1.219-.7,6.048,6.048,0,0,0-1.325-.371,13.315,13.315,0,0,0-3.246-.185,10.281,10.281,0,0,0-1.848.272,5.465,5.465,0,0,0-2.246,1.067A3.5,3.5,0,0,0,89.1,36.343a3.113,3.113,0,0,0-.185.947,3.643,3.643,0,0,0,.265,1.6,3.412,3.412,0,0,0,1.987,1.987,7.585,7.585,0,0,0,1.4.417Z" transform="translate(20.045 4911.773)"/>
    <path id="パス_6" data-name="パス 6" d="M50.316,34.943A8.4,8.4,0,0,1,52.3,33.618a5.247,5.247,0,0,1,3.816-.278,4.154,4.154,0,0,1,2.888,2.822,6.094,6.094,0,0,1,.3,1.987V46.5h-5.1V39a2.5,2.5,0,0,0-.106-.662,1.444,1.444,0,0,0-.841-.927,1.934,1.934,0,0,0-2.438.808,2.093,2.093,0,0,0-.3,1.12V46.51H45.56V33.579H50.2Z" transform="translate(34.621 4911.828)"/>
    <path id="パス_7" data-name="パス 7" d="M136.636,34.943a8.36,8.36,0,0,1,1.987-1.325,5.247,5.247,0,0,1,3.816-.278,4.154,4.154,0,0,1,2.888,2.822,6.068,6.068,0,0,1,.3,1.987V46.5H140.5V39a2.285,2.285,0,0,0-.106-.7,1.424,1.424,0,0,0-.828-.927,1.987,1.987,0,0,0-2.451.808,2.146,2.146,0,0,0-.3,1.12V46.51H131.84V33.579h4.637Z" transform="translate(5.496 4911.828)"/>
    <rect id="長方形_1" data-name="長方形 1" width="4.836" height="12.931" transform="translate(152.143 4945.414)"/>
    <rect id="長方形_2" data-name="長方形 2" width="4.836" height="3.418" transform="translate(152.143 4940.24)"/>
    <path id="パス_8" data-name="パス 8" d="M174.814,44.874a6.267,6.267,0,0,1-3.465,1.921,8.5,8.5,0,0,1-2.716.126,6.333,6.333,0,0,1-3.312-1.325,6.863,6.863,0,0,1-1.948-2.193,5.962,5.962,0,0,1-.768-2.126,6.989,6.989,0,0,1,.159-3.14,6.393,6.393,0,0,1,4.975-4.7,8.645,8.645,0,0,1,4.074.1,5.657,5.657,0,0,1,2.544,1.391,5.3,5.3,0,0,1,1.113,1.457,3.935,3.935,0,0,1,.457,2.107h-4.419a2.179,2.179,0,0,0-.861-1.431,1.815,1.815,0,0,0-2.054-.086,2.073,2.073,0,0,0-.9,1.173,5.9,5.9,0,0,0-.06,3.551,2.69,2.69,0,0,0,.768,1.318,1.842,1.842,0,0,0,1.6.5,1.51,1.51,0,0,0,.934-.5,1.987,1.987,0,0,0,.484-1.007,5.9,5.9,0,0,0,.093-.775h4.637A4.69,4.69,0,0,1,174.814,44.874Z" transform="translate(-4.852 4911.781)"/>
    <rect id="長方形_3" data-name="長方形 3" width="121.327" height="52.996" transform="translate(50 4923.004)" fill="none"/>
  </g>
</svg>
