<svg id="svg" version="1.1" xmlns="http://www.w3.org/2000/svg" xmlns:xlink="http://www.w3.org/1999/xlink" width="400" height="404.74308300395256" viewBox="0, 0, 400,404.74308300395256"><g id="svgg"><path id="path0" d="M81.167 0.163 C 80.904 0.421,73.728 1.600,72.423 1.600 C 71.777 1.600,71.136 1.780,71.000 2.000 C 70.864 2.220,70.054 2.400,69.200 2.400 C 68.346 2.400,67.525 2.597,67.377 2.838 C 67.228 3.078,66.639 3.186,66.068 3.077 C 65.494 2.967,64.845 3.101,64.615 3.377 C 64.387 3.651,63.030 4.274,61.600 4.762 C 58.434 5.841,58.205 5.935,54.200 7.795 C 52.440 8.613,50.325 9.553,49.500 9.884 C 48.675 10.216,48.000 10.647,48.000 10.843 C 48.000 11.040,47.840 11.200,47.644 11.200 C 46.747 11.200,37.543 17.199,36.000 18.790 C 35.670 19.130,34.680 19.945,33.800 20.601 C 29.600 23.729,21.387 32.694,17.219 38.700 C 16.265 40.075,15.330 41.200,15.142 41.200 C 14.954 41.200,14.800 41.476,14.800 41.814 C 14.800 42.152,14.499 42.888,14.130 43.450 C 12.269 46.290,8.002 54.679,8.001 55.500 C 8.000 55.775,7.820 56.000,7.600 56.000 C 7.380 56.000,7.200 56.414,7.200 56.920 C 7.200 57.426,7.057 58.011,6.882 58.220 C 6.707 58.429,6.331 59.320,6.048 60.200 C 4.944 63.627,4.286 65.176,4.007 65.004 C 3.846 64.905,3.803 65.282,3.910 65.841 C 4.017 66.400,3.912 67.250,3.677 67.729 C 3.442 68.208,3.144 69.320,3.014 70.200 C 2.781 71.781,2.584 72.930,1.536 78.800 C 0.732 83.301,0.742 320.384,1.546 324.800 C 1.847 326.450,2.178 328.700,2.283 329.800 C 2.388 330.900,2.637 331.971,2.837 332.180 C 3.037 332.389,3.200 333.208,3.200 334.000 C 3.200 334.792,3.394 335.634,3.631 335.871 C 3.868 336.108,4.003 336.819,3.931 337.451 C 3.859 338.083,4.000 338.780,4.245 339.000 C 4.490 339.220,5.269 341.110,5.976 343.200 C 6.683 345.290,7.546 347.630,7.892 348.400 C 9.395 351.739,11.985 356.782,13.336 359.000 C 14.140 360.320,14.798 361.625,14.799 361.900 C 14.800 362.175,14.950 362.400,15.134 362.400 C 15.317 362.400,16.170 363.435,17.028 364.700 C 18.711 367.179,22.898 372.440,25.186 374.952 C 26.418 376.303,27.421 377.288,31.761 381.400 C 32.226 381.840,33.283 382.707,34.112 383.327 C 34.940 383.947,36.056 384.892,36.591 385.427 C 37.126 385.962,37.690 386.400,37.845 386.400 C 38.000 386.400,39.043 387.102,40.163 387.960 C 41.283 388.818,42.920 389.918,43.800 390.405 C 44.680 390.891,46.120 391.764,47.000 392.344 C 47.880 392.925,49.050 393.611,49.600 393.869 C 55.013 396.410,57.172 397.332,60.700 398.607 C 62.955 399.422,64.800 400.218,64.800 400.375 C 64.800 400.533,65.340 400.582,66.000 400.485 C 66.660 400.388,67.200 400.492,67.200 400.714 C 67.200 400.937,67.965 401.216,68.900 401.333 C 71.429 401.652,74.918 402.292,75.600 402.563 C 79.434 404.087,84.441 404.158,198.200 404.303 C 318.832 404.457,315.166 404.524,327.600 401.925 C 328.590 401.718,330.120 401.451,331.000 401.333 C 331.880 401.215,332.771 400.956,332.980 400.759 C 333.189 400.562,333.828 400.400,334.400 400.400 C 334.972 400.400,335.611 400.249,335.820 400.065 C 336.222 399.710,342.318 397.422,343.000 397.369 C 343.580 397.325,352.047 393.098,353.429 392.164 C 354.073 391.728,355.065 391.138,355.633 390.854 C 356.202 390.569,357.822 389.457,359.233 388.383 C 360.645 387.308,361.948 386.423,362.129 386.415 C 362.309 386.407,362.693 386.175,362.982 385.900 C 363.270 385.625,364.285 384.770,365.238 384.000 C 370.160 380.021,376.124 374.053,378.896 370.335 C 379.496 369.529,380.226 368.629,380.516 368.335 C 381.645 367.191,384.856 362.375,387.271 358.200 C 388.673 355.778,392.926 347.159,392.996 346.600 C 393.023 346.380,393.160 345.930,393.300 345.600 C 393.441 345.270,394.039 343.605,394.630 341.900 C 395.220 340.195,395.829 338.800,395.983 338.800 C 396.136 338.800,396.185 338.281,396.092 337.647 C 395.999 337.013,396.120 336.373,396.362 336.224 C 396.603 336.075,396.800 335.254,396.800 334.400 C 396.800 333.546,396.980 332.736,397.200 332.600 C 397.420 332.464,397.600 331.655,397.600 330.802 C 397.600 329.950,397.783 328.770,398.008 328.180 C 398.489 326.913,399.038 320.000,398.657 320.000 C 398.512 320.000,395.455 321.966,391.863 324.370 C 388.272 326.773,384.698 329.096,383.921 329.532 C 383.145 329.968,382.080 330.567,381.555 330.862 C 381.030 331.158,380.510 331.502,380.400 331.626 C 380.290 331.751,379.210 332.411,378.000 333.094 C 368.102 338.678,359.318 342.946,349.400 346.990 C 346.320 348.246,343.487 349.437,343.105 349.637 C 342.723 349.836,342.084 350.000,341.685 350.000 C 341.286 350.000,340.789 350.161,340.580 350.358 C 340.090 350.821,330.724 354.000,329.852 354.000 C 329.487 354.000,328.877 354.170,328.495 354.378 C 327.801 354.756,324.204 355.878,320.800 356.778 C 319.810 357.040,318.447 357.422,317.772 357.627 C 317.096 357.832,316.159 358.000,315.690 358.000 C 315.221 358.000,314.424 358.158,313.919 358.351 C 312.230 358.995,304.986 360.648,301.200 361.253 C 297.085 361.911,294.427 362.307,291.200 362.744 C 289.550 362.967,286.940 363.340,285.400 363.571 C 269.616 365.945,243.098 365.527,225.200 362.624 C 224.430 362.499,222.630 362.215,221.200 361.993 C 215.029 361.035,214.097 360.878,212.200 360.473 C 211.100 360.239,208.670 359.662,206.800 359.190 C 201.792 357.928,200.375 357.591,198.600 357.241 C 196.777 356.882,188.156 354.128,187.105 353.570 C 186.723 353.366,186.157 353.200,185.848 353.200 C 185.538 353.200,183.510 352.506,181.342 351.659 C 179.174 350.811,176.590 349.892,175.600 349.616 C 174.610 349.341,172.000 348.433,169.800 347.598 C 148.217 339.409,142.203 339.907,123.200 351.457 C 121.770 352.326,119.610 353.508,118.400 354.084 C 117.190 354.660,115.221 355.597,114.025 356.166 C 112.829 356.735,111.535 357.200,111.149 357.200 C 110.763 357.200,110.336 357.380,110.200 357.600 C 110.064 357.820,109.543 358.000,109.043 358.000 C 108.543 358.000,108.010 358.123,107.859 358.274 C 107.055 359.078,99.594 361.124,94.200 362.019 C 73.149 365.513,57.894 364.081,55.030 358.340 C 53.088 354.447,55.574 350.652,64.356 344.103 C 66.862 342.234,69.472 340.082,70.156 339.320 C 70.840 338.558,72.390 337.253,73.601 336.420 C 76.937 334.123,78.916 331.786,83.268 325.000 C 92.704 310.287,94.312 302.778,89.862 294.200 C 88.879 292.304,85.286 287.509,84.018 286.400 C 83.892 286.290,82.984 285.210,82.000 284.000 C 81.016 282.790,80.104 281.710,79.973 281.600 C 78.643 280.480,66.400 263.000,66.400 262.220 C 66.400 262.068,65.885 261.192,65.255 260.272 C 62.914 256.852,54.400 240.056,54.400 238.857 C 54.400 238.600,54.241 238.077,54.047 237.695 C 53.852 237.313,53.504 236.550,53.273 236.000 C 53.041 235.450,52.480 234.122,52.026 233.049 C 51.572 231.976,51.200 230.772,51.200 230.373 C 51.200 229.974,51.020 229.536,50.800 229.400 C 50.580 229.264,50.400 228.801,50.400 228.371 C 50.400 227.941,50.240 227.277,50.045 226.895 C 49.110 225.064,46.769 216.865,45.620 211.400 C 43.596 201.774,43.187 199.208,41.979 188.600 C 41.457 184.012,41.702 159.756,42.323 154.600 C 43.226 147.101,44.294 141.235,46.000 134.400 C 46.192 133.630,46.562 132.100,46.823 131.000 C 47.424 128.457,49.559 121.619,50.037 120.705 C 50.237 120.323,50.400 119.773,50.400 119.482 C 50.400 119.047,52.427 113.584,54.029 109.700 C 54.233 109.205,54.564 108.395,54.764 107.900 C 55.918 105.047,59.396 97.872,61.791 93.400 C 66.588 84.445,78.101 67.097,80.772 64.800 C 80.900 64.690,81.496 63.941,82.096 63.135 C 82.697 62.329,83.416 61.424,83.694 61.125 C 83.972 60.825,85.542 59.055,87.182 57.190 C 94.847 48.475,106.543 37.402,114.333 31.486 C 115.140 30.874,116.472 29.824,117.293 29.155 C 118.114 28.485,120.094 26.999,121.693 25.853 C 123.292 24.706,125.909 22.830,127.508 21.684 C 129.108 20.538,130.511 19.600,130.627 19.600 C 130.742 19.600,132.170 18.700,133.800 17.600 C 135.430 16.500,136.875 15.600,137.010 15.600 C 137.145 15.600,138.008 15.089,138.928 14.463 C 139.848 13.838,141.590 12.785,142.800 12.122 C 144.010 11.460,145.720 10.501,146.600 9.992 C 149.194 8.490,164.715 0.800,165.152 0.800 C 165.372 0.800,165.664 0.620,165.800 0.400 C 166.038 0.016,81.559 -0.221,81.167 0.163 M282.800 112.634 C 279.434 113.868,277.616 115.648,276.506 118.798 C 275.783 120.849,275.777 212.080,276.500 214.459 C 279.018 222.748,292.384 222.408,294.323 214.005 C 295.112 210.588,294.989 121.652,294.192 119.024 C 292.833 114.545,290.603 112.781,286.003 112.547 C 284.571 112.474,283.130 112.513,282.800 112.634 M119.800 121.718 C 116.010 123.861,114.578 129.749,116.874 133.747 C 119.233 137.853,118.804 137.780,141.391 137.911 C 152.582 137.976,160.738 138.178,160.956 138.396 C 161.272 138.712,159.673 141.633,158.766 142.400 C 158.635 142.510,157.060 144.760,155.264 147.400 C 150.248 154.776,147.878 158.194,146.824 159.568 C 146.295 160.259,145.668 161.155,145.431 161.559 C 145.053 162.205,143.722 164.134,137.575 172.955 C 131.572 181.569,129.670 184.311,125.613 190.200 C 120.744 197.268,119.491 198.997,119.142 199.133 C 118.954 199.207,118.800 199.460,118.800 199.697 C 118.800 199.934,118.098 201.057,117.241 202.192 C 113.357 207.336,114.811 215.653,120.060 218.316 C 124.207 220.420,123.737 220.391,153.689 220.396 L 181.577 220.400 183.868 219.387 C 192.168 215.716,192.960 205.163,185.112 202.826 C 184.170 202.546,182.987 202.155,182.481 201.958 C 181.976 201.761,172.565 201.600,161.569 201.600 C 138.585 201.600,140.072 201.912,143.035 197.711 C 144.087 196.220,145.949 193.586,147.174 191.858 C 148.398 190.129,149.580 188.419,149.800 188.058 C 150.020 187.696,150.302 187.310,150.426 187.200 C 150.551 187.090,151.259 186.100,152.000 185.000 C 152.741 183.900,153.456 182.910,153.589 182.800 C 153.722 182.690,154.798 181.160,155.979 179.400 C 157.160 177.640,159.154 174.760,160.409 173.000 C 164.488 167.279,170.579 158.639,171.688 157.000 C 172.284 156.120,173.617 154.230,174.652 152.800 C 175.686 151.370,177.527 148.760,178.741 147.000 C 179.956 145.240,181.051 143.710,181.175 143.600 C 181.299 143.490,182.024 142.500,182.786 141.400 C 183.548 140.300,184.431 139.134,184.749 138.808 C 187.890 135.589,187.951 126.336,184.850 123.264 C 182.315 120.752,182.970 120.799,150.706 120.807 L 121.400 120.813 119.800 121.718 M225.000 144.207 C 218.717 145.716,216.448 146.634,211.834 149.532 C 189.003 163.872,189.752 205.983,213.028 216.630 C 225.129 222.165,236.260 221.323,244.798 214.226 C 247.532 211.953,247.485 211.944,248.839 215.000 C 252.098 222.359,262.194 222.119,265.674 214.600 L 266.600 212.600 266.600 182.320 C 266.600 158.629,266.491 151.931,266.100 151.540 C 265.825 151.265,265.600 150.722,265.600 150.334 C 265.600 146.990,257.354 144.095,253.540 146.100 C 251.280 147.288,250.036 148.519,249.041 150.552 C 247.699 153.295,247.081 153.548,245.998 151.797 C 244.880 149.987,241.463 146.949,239.653 146.155 C 236.992 144.989,236.612 144.860,234.600 144.443 C 230.976 143.691,227.502 143.606,225.000 144.207 M334.600 144.421 C 318.509 147.643,309.659 154.763,305.166 168.100 C 297.969 189.466,306.881 211.983,324.800 217.703 C 325.790 218.019,327.292 218.503,328.138 218.778 C 335.932 221.316,344.134 220.658,354.000 216.703 C 365.811 211.969,373.913 198.722,374.125 183.800 C 374.281 172.890,367.451 157.772,359.919 152.353 C 358.884 151.609,358.029 150.865,358.019 150.700 C 358.008 150.535,357.816 150.400,357.591 150.400 C 357.367 150.400,356.512 149.961,355.691 149.423 C 354.431 148.598,351.912 147.448,348.200 146.003 C 346.644 145.397,342.056 144.312,339.000 143.827 C 338.560 143.758,336.580 144.025,334.600 144.421 M237.698 163.935 C 240.089 165.112,243.116 168.188,244.340 170.684 C 244.858 171.738,245.443 172.913,245.640 173.295 C 245.838 173.677,246.000 174.406,246.000 174.915 C 246.000 175.424,246.155 176.011,246.344 176.220 C 246.821 176.748,247.603 180.994,247.586 182.967 C 247.573 184.443,247.135 186.736,246.079 190.852 C 242.329 205.461,223.520 207.840,216.833 194.551 C 216.155 193.203,215.600 191.806,215.600 191.445 C 215.600 191.084,215.435 190.477,215.233 190.095 C 214.164 188.073,213.484 183.104,213.967 180.852 C 214.233 179.613,214.548 177.924,214.668 177.097 C 214.787 176.271,215.045 175.495,215.242 175.374 C 215.439 175.252,215.600 174.801,215.600 174.371 C 215.600 173.941,215.760 173.277,215.956 172.895 C 216.151 172.513,216.646 171.497,217.056 170.637 C 220.269 163.888,230.716 160.496,237.698 163.935 M344.143 163.442 C 355.750 167.397,357.568 193.856,346.714 200.870 C 340.924 204.612,332.828 203.870,327.777 199.135 C 326.161 197.621,323.200 192.383,323.200 191.039 C 323.200 190.681,323.026 190.077,322.814 189.695 C 319.440 183.623,323.077 169.904,329.266 165.353 C 332.782 162.769,339.597 161.893,344.143 163.442 " stroke="none" fill="#048cfc" fill-rule="evenodd"></path><path id="path1" d="M167.213 0.585 C 166.946 0.906,166.339 1.281,165.864 1.417 C 162.817 2.293,146.601 10.509,141.292 13.867 C 140.133 14.600,139.108 15.200,139.015 15.200 C 138.842 15.200,133.723 18.343,133.000 18.894 C 132.780 19.061,130.800 20.390,128.600 21.847 C 107.834 35.601,85.318 57.697,72.800 76.607 C 65.815 87.159,59.915 97.718,56.600 105.603 C 55.999 107.031,55.193 108.920,54.809 109.800 C 53.882 111.920,53.087 113.970,51.783 117.600 C 51.190 119.250,50.572 120.960,50.408 121.400 C 49.380 124.168,46.399 135.270,45.629 139.200 C 40.758 164.055,40.762 183.379,45.644 208.000 C 46.467 212.154,47.289 215.409,48.876 220.800 C 49.750 223.770,50.555 226.560,50.666 227.000 C 50.776 227.440,51.024 228.160,51.217 228.600 C 51.410 229.040,52.128 230.930,52.813 232.800 C 58.931 249.503,70.966 270.255,81.760 282.715 C 86.888 288.633,88.129 290.173,89.561 292.388 C 94.700 300.339,93.417 311.019,86.035 321.749 C 85.356 322.736,84.800 323.654,84.800 323.787 C 84.800 325.497,76.225 335.756,73.400 337.427 C 72.520 337.947,71.319 338.982,70.731 339.726 C 70.143 340.471,67.846 342.385,65.626 343.981 C 50.498 354.857,51.608 361.499,68.785 362.877 C 76.559 363.501,85.993 362.873,95.200 361.119 C 98.597 360.472,106.555 358.326,106.980 357.943 C 107.189 357.754,107.738 357.600,108.200 357.600 C 108.662 357.600,109.211 357.453,109.420 357.272 C 109.629 357.092,111.150 356.435,112.800 355.812 C 116.775 354.312,118.868 353.250,124.600 349.820 C 129.582 346.840,135.994 343.600,136.912 343.600 C 137.202 343.600,137.611 343.440,137.820 343.245 C 138.388 342.714,143.201 341.607,146.128 341.334 C 150.290 340.945,156.361 342.014,162.400 344.200 C 164.050 344.797,168.640 346.410,172.600 347.783 C 176.560 349.157,180.880 350.682,182.200 351.172 C 186.677 352.835,194.182 355.213,198.800 356.433 C 201.330 357.101,204.030 357.814,204.800 358.017 C 207.517 358.733,211.441 359.575,215.000 360.206 C 216.980 360.557,219.251 361.014,220.046 361.222 C 220.842 361.430,222.043 361.600,222.716 361.600 C 223.389 361.600,224.808 361.771,225.869 361.979 C 240.986 364.947,276.566 364.951,291.331 361.988 C 292.392 361.774,293.875 361.600,294.625 361.600 C 295.375 361.600,296.756 361.418,297.694 361.195 C 298.632 360.972,301.200 360.436,303.400 360.003 C 305.600 359.570,308.660 358.929,310.200 358.578 C 311.740 358.227,313.450 357.854,314.000 357.751 C 318.862 356.834,331.573 352.958,341.338 349.416 C 354.585 344.611,372.461 335.981,382.900 329.353 C 383.725 328.829,385.075 327.977,385.900 327.459 C 388.714 325.695,394.996 321.503,396.854 320.150 C 397.873 319.408,398.998 318.800,399.354 318.800 C 399.948 318.800,400.000 305.909,400.000 159.400 L 400.000 0.000 283.849 0.000 C 182.460 0.000,167.636 0.074,167.213 0.585 M70.000 0.800 C 70.000 1.020,70.371 1.200,70.824 1.200 C 71.277 1.200,71.536 1.020,71.400 0.800 C 71.079 0.281,70.000 0.281,70.000 0.800 M67.200 1.685 C 67.200 1.858,67.560 2.000,68.000 2.000 C 68.440 2.000,68.800 1.831,68.800 1.625 C 68.800 1.419,68.440 1.277,68.000 1.310 C 67.560 1.343,67.200 1.512,67.200 1.685 M55.600 5.600 C 55.600 5.820,55.870 6.000,56.200 6.000 C 56.530 6.000,56.800 5.820,56.800 5.600 C 56.800 5.380,56.530 5.200,56.200 5.200 C 55.870 5.200,55.600 5.380,55.600 5.600 M48.643 9.033 C 48.267 10.011,48.349 10.108,49.000 9.457 C 49.680 8.777,49.767 8.400,49.243 8.400 C 49.046 8.400,48.776 8.685,48.643 9.033 M40.460 13.842 C 39.731 14.666,40.200 15.057,40.981 14.276 C 41.321 13.936,41.600 13.554,41.600 13.429 C 41.600 13.009,41.006 13.224,40.460 13.842 M13.660 41.442 C 12.931 42.266,13.400 42.657,14.181 41.876 C 14.521 41.536,14.800 41.154,14.800 41.029 C 14.800 40.609,14.206 40.824,13.660 41.442 M2.000 67.976 C 2.000 68.649,2.180 69.200,2.400 69.200 C 2.620 69.200,2.800 68.761,2.800 68.224 C 2.800 67.687,2.620 67.136,2.400 67.000 C 2.167 66.856,2.000 67.263,2.000 67.976 M1.449 70.730 C 1.272 71.242,1.233 71.767,1.363 71.897 C 1.778 72.311,2.070 71.700,1.918 70.734 L 1.771 69.800 1.449 70.730 M0.612 75.317 C 0.441 75.712,0.413 76.147,0.551 76.284 C 0.957 76.690,1.284 76.120,1.097 75.331 C 0.932 74.633,0.910 74.632,0.612 75.317 M0.101 81.800 C 0.105 82.680,0.187 82.993,0.283 82.495 C 0.379 81.998,0.375 81.278,0.275 80.895 C 0.175 80.513,0.096 80.920,0.101 81.800 M290.498 112.919 C 292.608 114.156,294.177 116.304,295.003 119.087 C 295.839 121.899,295.716 212.844,294.874 215.308 C 292.784 221.420,282.881 223.219,278.030 218.368 C 275.201 215.540,275.400 219.439,275.400 166.800 L 275.400 119.400 276.493 117.176 C 279.070 111.933,285.487 109.982,290.498 112.919 M183.164 121.200 C 189.027 124.523,189.737 133.322,184.674 139.917 C 183.710 141.172,179.263 147.420,174.793 153.800 C 170.323 160.180,165.931 166.429,165.033 167.687 C 164.135 168.945,162.804 170.835,162.075 171.887 C 161.346 172.939,158.396 177.130,155.519 181.200 C 152.641 185.270,149.022 190.400,147.475 192.600 C 145.929 194.800,144.068 197.389,143.341 198.354 C 142.614 199.318,142.115 200.263,142.233 200.454 C 142.351 200.644,151.184 200.800,161.862 200.800 C 178.307 200.800,181.607 200.896,183.434 201.427 C 193.666 204.402,194.109 215.849,184.152 219.994 L 181.256 221.200 153.670 221.200 C 127.363 221.200,125.966 221.164,123.542 220.413 C 117.141 218.431,114.420 215.284,114.407 209.846 C 114.395 205.137,114.496 204.928,121.892 194.312 C 123.381 192.174,126.633 187.494,129.119 183.912 C 131.604 180.331,134.897 175.600,136.436 173.400 C 137.975 171.200,140.227 167.960,141.440 166.200 C 142.653 164.440,144.720 161.470,146.034 159.600 C 147.348 157.730,149.652 154.400,151.154 152.200 C 152.656 150.000,155.347 146.130,157.133 143.600 C 158.919 141.070,160.384 138.865,160.390 138.700 C 160.395 138.535,151.691 138.400,141.046 138.400 C 126.409 138.400,121.413 138.278,120.546 137.899 C 118.022 136.794,117.051 135.791,115.722 132.913 L 114.379 130.006 115.148 127.664 C 116.493 123.565,118.087 121.375,120.400 120.443 C 121.047 120.183,132.004 120.069,151.400 120.120 L 181.400 120.200 183.164 121.200 M231.338 143.212 C 237.817 143.954,242.962 146.467,245.640 150.196 C 247.214 152.388,246.903 152.426,248.557 149.840 C 253.123 142.703,263.499 142.913,266.307 150.200 C 267.618 153.603,268.318 203.417,267.160 210.884 C 265.357 222.502,253.132 225.080,248.043 214.916 L 247.200 213.232 244.531 215.252 C 230.029 226.229,208.114 220.774,199.323 204.000 C 197.957 201.394,197.234 199.419,195.591 193.800 C 193.841 187.816,193.832 178.239,195.570 172.583 C 198.616 162.675,200.403 159.241,205.265 153.947 C 210.118 148.663,218.961 144.265,227.600 142.840 C 227.710 142.821,229.392 142.989,231.338 143.212 M342.875 143.787 C 361.526 148.125,371.212 159.258,374.826 180.515 C 375.992 187.374,372.508 199.805,367.403 207.000 C 357.037 221.610,332.780 225.313,316.996 214.695 C 297.491 201.573,296.796 166.887,315.730 151.473 C 318.032 149.599,324.856 146.000,326.107 146.000 C 326.462 146.000,326.851 145.841,326.971 145.646 C 327.092 145.451,327.687 145.190,328.295 145.065 C 328.903 144.941,330.840 144.486,332.600 144.054 C 336.516 143.094,339.555 143.015,342.875 143.787 M225.491 164.144 C 216.774 167.114,212.787 178.123,215.938 190.520 C 219.350 203.940,236.919 206.897,243.511 195.161 C 252.811 178.603,241.284 158.762,225.491 164.144 M334.685 163.637 C 325.740 165.743,320.379 177.365,323.178 188.584 C 325.549 198.083,330.158 202.205,338.400 202.194 C 348.263 202.180,353.183 195.726,353.183 182.800 C 353.183 168.669,345.800 161.020,334.685 163.637 M0.101 321.800 C 0.105 322.680,0.187 322.993,0.283 322.495 C 0.379 321.998,0.375 321.278,0.275 320.895 C 0.175 320.513,0.096 320.920,0.101 321.800 M399.693 322.800 C 399.693 323.570,399.775 323.885,399.876 323.500 C 399.976 323.115,399.976 322.485,399.876 322.100 C 399.775 321.715,399.693 322.030,399.693 322.800 M0.578 327.635 C 0.431 327.874,0.510 328.270,0.755 328.515 C 1.082 328.842,1.200 328.726,1.200 328.080 C 1.200 327.114,0.992 326.965,0.578 327.635 M398.800 328.200 C 398.800 328.530,398.980 328.800,399.200 328.800 C 399.420 328.800,399.600 328.530,399.600 328.200 C 399.600 327.870,399.420 327.600,399.200 327.600 C 398.980 327.600,398.800 327.870,398.800 328.200 M1.310 332.400 C 1.343 332.840,1.512 333.200,1.685 333.200 C 1.858 333.200,2.000 332.840,2.000 332.400 C 2.000 331.960,1.831 331.600,1.625 331.600 C 1.419 331.600,1.277 331.960,1.310 332.400 M398.000 332.776 C 398.000 333.229,398.180 333.600,398.400 333.600 C 398.620 333.600,398.800 333.341,398.800 333.024 C 398.800 332.707,398.620 332.336,398.400 332.200 C 398.180 332.064,398.000 332.323,398.000 332.776 M2.000 335.376 C 2.000 335.913,2.180 336.464,2.400 336.600 C 2.633 336.744,2.800 336.337,2.800 335.624 C 2.800 334.951,2.620 334.400,2.400 334.400 C 2.180 334.400,2.000 334.839,2.000 335.376 M397.200 335.824 C 397.200 336.404,397.373 336.740,397.600 336.600 C 397.820 336.464,398.000 336.003,398.000 335.576 C 398.000 335.149,397.820 334.800,397.600 334.800 C 397.380 334.800,397.200 335.261,397.200 335.824 M393.500 347.031 C 393.335 347.197,393.200 347.699,393.200 348.147 C 393.200 348.735,393.321 348.839,393.638 348.522 C 393.878 348.282,394.013 347.780,393.938 347.407 C 393.862 347.033,393.665 346.864,393.500 347.031 M13.200 361.504 C 13.200 361.671,13.560 362.032,14.000 362.307 C 14.930 362.888,15.054 362.597,14.229 361.771 C 13.598 361.141,13.200 361.037,13.200 361.504 M385.700 361.798 C 384.957 362.642,385.094 362.873,386.000 362.307 C 386.440 362.032,386.800 361.671,386.800 361.504 C 386.800 361.027,386.249 361.175,385.700 361.798 M17.081 366.963 C 17.477 367.493,17.859 367.764,17.932 367.567 C 18.005 367.369,17.793 366.936,17.461 366.604 C 16.523 365.665,16.283 365.893,17.081 366.963 M374.861 376.255 C 374.125 377.025,373.585 377.718,373.662 377.795 C 373.851 377.985,374.801 377.201,375.970 375.889 C 377.389 374.295,376.433 374.611,374.861 376.255 M25.108 376.626 C 24.852 376.881,28.742 380.800,29.251 380.800 C 29.463 380.800,29.133 380.308,28.518 379.708 C 27.903 379.107,26.929 378.123,26.353 377.522 C 25.777 376.920,25.216 376.517,25.108 376.626 M371.260 379.879 C 369.993 381.192,370.479 381.557,371.772 380.264 C 372.334 379.702,372.660 379.167,372.497 379.074 C 372.333 378.981,371.777 379.344,371.260 379.879 M40.000 389.029 C 40.000 389.453,41.236 390.497,41.467 390.267 C 41.592 390.141,41.417 389.760,41.076 389.419 C 40.441 388.784,40.000 388.624,40.000 389.029 M358.900 389.398 C 358.331 390.045,358.261 390.400,358.704 390.400 C 358.871 390.400,359.232 390.040,359.507 389.600 C 360.078 388.687,359.651 388.545,358.900 389.398 M43.002 391.202 C 43.402 391.644,43.811 391.922,43.912 391.821 C 44.128 391.605,42.988 390.400,42.567 390.400 C 42.407 390.400,42.603 390.761,43.002 391.202 M356.460 391.068 C 355.719 391.869,356.209 392.248,356.984 391.473 C 357.326 391.131,357.470 390.768,357.303 390.667 C 357.136 390.567,356.757 390.747,356.460 391.068 M46.400 393.104 C 46.400 393.650,47.946 394.411,48.205 393.992 C 48.338 393.776,48.167 393.600,47.824 393.600 C 47.481 393.600,47.200 393.420,47.200 393.200 C 47.200 392.980,47.020 392.800,46.800 392.800 C 46.580 392.800,46.400 392.937,46.400 393.104 M352.500 393.398 C 351.757 394.242,351.894 394.473,352.800 393.907 C 353.240 393.632,353.600 393.271,353.600 393.104 C 353.600 392.627,353.049 392.775,352.500 393.398 M343.200 398.000 C 343.200 398.220,343.459 398.400,343.776 398.400 C 344.093 398.400,344.464 398.220,344.600 398.000 C 344.736 397.780,344.477 397.600,344.024 397.600 C 343.571 397.600,343.200 397.780,343.200 398.000 M57.200 398.800 C 57.200 399.020,57.470 399.200,57.800 399.200 C 58.130 399.200,58.400 399.020,58.400 398.800 C 58.400 398.580,58.130 398.400,57.800 398.400 C 57.470 398.400,57.200 398.580,57.200 398.800 M341.600 398.800 C 341.600 399.020,341.870 399.200,342.200 399.200 C 342.530 399.200,342.800 399.020,342.800 398.800 C 342.800 398.580,342.530 398.400,342.200 398.400 C 341.870 398.400,341.600 398.580,341.600 398.800 M64.400 401.200 C 64.400 401.420,64.771 401.600,65.224 401.600 C 65.677 401.600,65.936 401.420,65.800 401.200 C 65.664 400.980,65.293 400.800,64.976 400.800 C 64.659 400.800,64.400 400.980,64.400 401.200 M334.400 401.200 C 334.400 401.420,334.670 401.600,335.000 401.600 C 335.330 401.600,335.600 401.420,335.600 401.200 C 335.600 400.980,335.330 400.800,335.000 400.800 C 334.670 400.800,334.400 400.980,334.400 401.200 M67.000 402.000 C 67.136 402.220,67.507 402.400,67.824 402.400 C 68.141 402.400,68.400 402.220,68.400 402.000 C 68.400 401.780,68.029 401.600,67.576 401.600 C 67.123 401.600,66.864 401.780,67.000 402.000 M331.600 402.000 C 331.600 402.220,331.949 402.400,332.376 402.400 C 332.803 402.400,333.264 402.220,333.400 402.000 C 333.540 401.773,333.204 401.600,332.624 401.600 C 332.061 401.600,331.600 401.780,331.600 402.000 M70.000 402.800 C 70.776 403.301,71.200 403.301,71.200 402.800 C 71.200 402.580,70.795 402.403,70.300 402.406 C 69.572 402.411,69.515 402.486,70.000 402.800 M328.800 402.800 C 328.800 403.020,329.059 403.200,329.376 403.200 C 329.693 403.200,330.064 403.020,330.200 402.800 C 330.336 402.580,330.077 402.400,329.624 402.400 C 329.171 402.400,328.800 402.580,328.800 402.800 " stroke="none" fill="#fcfcfc" fill-rule="evenodd"></path></g></svg>